<svg width="2451" height="1800" viewBox="0 0 2451 1800" fill="none" xmlns="http://www.w3.org/2000/svg">
<path d="M748.759 1175.72C810.933 1107.45 885.262 1053.2 967.359 1016.16C1049.46 979.113 1137.66 960.027 1226.76 960.027C1315.87 960.027 1404.07 979.113 1486.17 1016.16C1568.27 1053.2 1642.6 1107.45 1704.77 1175.72M429.332 960.028C533.274 848.22 656.859 759.492 792.979 698.945C929.1 638.399 1075.07 607.229 1222.5 607.229C1369.92 607.229 1515.89 638.399 1652.01 698.945C1788.13 759.492 1911.72 848.22 2015.66 960.028M987.829 1439.43C1018.91 1399.12 1056.06 1367.08 1097.1 1345.2C1138.14 1323.32 1182.22 1312.05 1226.76 1312.05C1271.3 1312.05 1315.39 1323.32 1356.43 1345.2C1397.47 1367.08 1434.62 1399.12 1465.7 1439.43" stroke="#2C0400" stroke-width="179.69" stroke-linecap="round" stroke-linejoin="round"/>
<path d="M191.465 744.215C326.847 590.781 487.591 469.067 664.513 386.025C841.435 302.983 1031.07 260.241 1222.58 260.241C1414.09 260.241 1603.72 302.983 1780.64 386.025C1957.56 469.067 2118.31 590.781 2253.69 744.215" stroke="#2C0400" stroke-width="179.69" stroke-linecap="round" stroke-linejoin="round"/>
</svg>
