<svg width="64" height="53" viewBox="0 0 64 53" fill="none" xmlns="http://www.w3.org/2000/svg">
<rect x="0.5" y="0.5" width="62.6197" height="51.5283" rx="12.5" fill="url(#paint0_linear_221_10)" stroke="#525252"/>
<path d="M0.558594 14.6038H24.2065C24.7588 14.6038 25.2065 15.0515 25.2065 15.6038V27.2358M40.1713 0.514151V14.6038M40.1713 14.6038H63.0586M40.1713 14.6038V27.2358M40.1713 27.2358H63.0586M40.1713 27.2358V39.625M40.1713 39.625V51.0142C40.1713 51.5664 39.7236 52.0142 39.1713 52.0142H26.2065C25.6542 52.0142 25.2065 51.5664 25.2065 51.0142V39.625M40.1713 39.625H63.0586M25.2065 27.2358V34.0377V39.625M25.2065 27.2358H0.558594M25.2065 27.2358V39.625M25.2065 39.625H0.558594" stroke="#525252"/>
<defs>
<linearGradient id="paint0_linear_221_10" x1="1" y1="1" x2="66.8163" y2="45.2924" gradientUnits="userSpaceOnUse">
<stop stop-color="#FBFBFB"/>
<stop offset="1" stop-color="#A6A6A6"/>
</linearGradient>
</defs>
</svg>
