<svg width="358" height="227" viewBox="0 0 358 227" fill="none" xmlns="http://www.w3.org/2000/svg">
<path d="M83.3856 61.1852C85.6469 60.556 88.0261 61.5182 89.2304 63.5111L93.0415 69.8138C59.1944 83.401 39.1384 118.922 44.9871 154.922L37.6217 154.914C35.2932 154.912 33.2404 153.372 32.6112 151.111C21.8166 112.318 44.5926 71.9798 83.3856 61.1852Z" fill="white"/>
<path d="M98.5566 78.9433L139.585 147.005C140.577 148.624 140.592 150.623 139.635 152.243C139.17 153.045 138.503 153.709 137.7 154.17C136.897 154.632 135.986 154.873 135.06 154.87L55.5879 154.894C49.5203 122.582 67.6903 90.4016 98.4923 78.907L98.5566 78.9433ZM111.479 142.699C115.649 141.538 118.079 137.235 116.919 133.064C115.758 128.893 111.455 126.463 107.284 127.624C103.113 128.784 100.683 133.088 101.844 137.259C103.004 141.429 107.308 143.859 111.479 142.699ZM98.0641 113.947C102.235 112.786 104.665 108.483 103.504 104.312C102.344 100.141 98.0401 97.7114 93.8693 98.872C89.6986 100.033 87.2686 104.336 88.4292 108.507C89.5898 112.678 93.8933 115.108 98.0641 113.947ZM81.0446 140.339C86.5721 138.801 89.8362 133.02 88.2981 127.493C86.76 121.965 80.9791 118.701 75.4516 120.239C69.9241 121.777 66.66 127.558 68.1981 133.086C69.7362 138.613 75.5171 141.877 81.0446 140.339Z" fill="white"/>
<path d="M184.918 87.3648C187.052 87.865 188.702 88.8987 189.87 90.4659C191.07 91.9997 191.67 93.7837 191.67 95.8177C191.67 98.9188 190.636 101.32 188.569 103.02C186.535 104.687 183.601 105.521 179.766 105.521L161.21 105.521L161.21 70.109L179.266 70.109C182.867 70.109 185.701 70.8926 187.769 72.4598C189.836 74.027 190.87 76.3111 190.87 79.3121C190.87 81.3795 190.32 83.1301 189.219 84.5639C188.152 85.9644 186.718 86.898 184.918 87.3648ZM172.314 83.9137L176.615 83.9137C177.615 83.9137 178.349 83.7136 178.816 83.3135C179.316 82.9133 179.566 82.2965 179.566 81.4628C179.566 80.5959 179.316 79.9623 178.816 79.5622C178.349 79.1287 177.615 78.912 176.615 78.912L172.314 78.912L172.314 83.9137ZM177.365 96.618C178.366 96.618 179.099 96.4346 179.566 96.0678C180.066 95.6677 180.316 95.0341 180.316 94.1671C180.316 92.4666 179.333 91.6163 177.365 91.6163L172.314 91.6163L172.314 96.618L177.365 96.618ZM213.207 105.521L206.555 92.8167L206.505 92.8167L206.505 105.521L195.401 105.521L195.401 70.109L211.907 70.109C214.774 70.109 217.225 70.6258 219.259 71.6595C221.293 72.6599 222.81 74.0437 223.811 75.8109C224.844 77.5448 225.361 79.5122 225.361 81.7129C225.361 84.0804 224.694 86.1811 223.361 88.0151C222.06 89.849 220.176 91.1661 217.709 91.9664L225.411 105.521L213.207 105.521ZM206.505 85.4142L210.906 85.4142C211.973 85.4142 212.774 85.1808 213.307 84.7139C213.841 84.2138 214.107 83.4468 214.107 82.4132C214.107 81.4795 213.824 80.7459 213.257 80.2124C212.724 79.6789 211.94 79.4121 210.906 79.4121L206.505 79.4121L206.505 85.4142ZM251.616 100.169L239.812 100.169L238.062 105.521L226.408 105.521L239.362 70.109L252.166 70.109L265.071 105.521L253.367 105.521L251.616 100.169ZM248.915 91.8164L245.714 81.963L242.513 91.8164L248.915 91.8164ZM303.256 70.109L291.352 105.521L276.997 105.521L265.093 70.109L276.897 70.109L284.199 94.4672L291.452 70.109L303.256 70.109ZM322.997 105.871C319.663 105.871 316.595 105.088 313.794 103.52C311.026 101.953 308.826 99.7857 307.192 97.0181C305.558 94.2505 304.741 91.1328 304.741 87.6649C304.741 84.1971 305.558 81.0794 307.192 78.3118C308.826 75.5442 311.026 73.3934 313.794 71.8596C316.595 70.2924 319.663 69.5088 322.997 69.5088C326.332 69.5088 329.383 70.2924 332.15 71.8596C334.918 73.3934 337.102 75.5442 338.702 78.3118C340.336 81.0794 341.153 84.1971 341.153 87.6649C341.153 91.1328 340.336 94.2505 338.702 97.0181C337.102 99.7857 334.901 101.953 332.1 103.52C329.333 105.088 326.298 105.871 322.997 105.871ZM322.997 95.5176C325.198 95.5176 326.898 94.8174 328.099 93.4169C329.299 91.9831 329.899 90.0658 329.899 87.6649C329.899 85.2308 329.299 83.3135 328.099 81.913C326.898 80.4792 325.198 79.7623 322.997 79.7623C320.763 79.7623 319.046 80.4792 317.845 81.913C316.645 83.3135 316.045 85.2308 316.045 87.6649C316.045 90.0658 316.645 91.9831 317.845 93.4169C319.046 94.8174 320.763 95.5176 322.997 95.5176ZM190.17 132.263C190.17 134.497 189.653 136.531 188.619 138.365C187.585 140.166 186.052 141.6 184.018 142.667C182.017 143.734 179.583 144.267 176.715 144.267L172.314 144.267L172.314 155.521L161.21 155.521L161.21 120.109L176.715 120.109C181.05 120.109 184.368 121.209 186.668 123.41C189.003 125.611 190.17 128.562 190.17 132.263ZM175.465 135.514C177.765 135.514 178.916 134.431 178.916 132.263C178.916 130.096 177.765 129.012 175.465 129.012L172.314 129.012L172.314 135.514L175.465 135.514ZM204.795 120.109L204.795 155.521L193.692 155.521L193.692 120.109L204.795 120.109ZM222.114 146.668L236.319 146.668L236.319 155.521L209.81 155.521L209.81 147.168L223.815 128.912L209.81 128.912L209.81 120.109L236.319 120.109L236.319 128.462L222.114 146.668ZM253.619 146.668L267.824 146.668L267.824 155.521L241.315 155.521L241.315 147.168L255.32 128.912L241.315 128.912L241.315 120.109L267.824 120.109L267.824 128.462L253.619 146.668ZM295.528 150.169L283.724 150.169L281.973 155.521L270.319 155.521L283.273 120.109L296.078 120.109L308.982 155.521L297.278 155.521L295.528 150.169ZM292.827 141.816L289.626 131.963L286.425 141.816L292.827 141.816ZM314.406 120.109L325.41 120.109L319.508 134.864L312.205 134.864L314.406 120.109ZM342.962 155.871C340.294 155.871 337.927 155.438 335.86 154.571C333.826 153.704 332.208 152.503 331.008 150.969C329.808 149.436 329.124 147.702 328.957 145.768L339.611 145.768C339.744 146.601 340.094 147.218 340.661 147.618C341.261 148.018 342.012 148.219 342.912 148.219C343.479 148.219 343.929 148.102 344.262 147.868C344.596 147.602 344.763 147.285 344.763 146.918C344.763 146.285 344.413 145.834 343.712 145.568C343.012 145.301 341.828 145.001 340.161 144.667C338.127 144.267 336.443 143.834 335.109 143.367C333.809 142.9 332.659 142.1 331.658 140.966C330.691 139.832 330.208 138.265 330.208 136.264C330.208 134.531 330.658 132.963 331.558 131.563C332.492 130.129 333.859 129.012 335.66 128.212C337.46 127.378 339.644 126.961 342.212 126.961C346.013 126.961 348.981 127.895 351.115 129.762C353.282 131.63 354.583 134.064 355.016 137.065L345.163 137.065C344.996 136.298 344.646 135.714 344.112 135.314C343.579 134.881 342.862 134.664 341.962 134.664C341.395 134.664 340.961 134.781 340.661 135.014C340.361 135.214 340.211 135.531 340.211 135.964C340.211 136.531 340.561 136.965 341.261 137.265C341.962 137.532 343.079 137.815 344.613 138.115C346.647 138.515 348.364 138.965 349.764 139.466C351.165 139.966 352.382 140.833 353.416 142.066C354.449 143.267 354.966 144.934 354.966 147.068C354.966 148.735 354.483 150.236 353.516 151.57C352.549 152.903 351.148 153.954 349.314 154.721C347.514 155.488 345.396 155.871 342.962 155.871Z" fill="white"/>
</svg>
