<svg width="1312" height="211" viewBox="0 0 1312 211" fill="none" xmlns="http://www.w3.org/2000/svg">
<g clip-path="url(#clip0_39_15)">
<path d="M127.686 4.11624C132.531 2.76786 137.63 4.82976 140.211 9.10056L148.378 22.6068C75.8453 51.7233 32.8666 127.842 45.3999 204.989L29.6164 204.972C24.6265 204.968 20.2274 201.668 18.879 196.822C-4.2531 113.691 44.5545 27.2484 127.686 4.11624Z" fill="#3E3E3E"/>
<path d="M160.201 42.1704L248.122 188.024C250.248 191.493 250.28 195.777 248.229 199.248C247.234 200.965 245.804 202.39 244.082 203.378C242.361 204.366 240.41 204.883 238.425 204.877L68.1213 204.929C55.1189 135.686 94.0561 66.7249 160.063 42.0927L160.201 42.1704ZM187.892 178.795C196.83 176.308 202.037 167.085 199.55 158.148C197.063 149.21 187.84 144.003 178.903 146.49C169.965 148.977 164.758 158.199 167.245 167.137C169.732 176.075 178.954 181.282 187.892 178.795ZM159.145 117.181C168.083 114.694 173.29 105.472 170.803 96.5344C168.316 87.5967 159.094 82.3895 150.156 84.8765C141.218 87.3635 136.011 96.5859 138.498 105.524C140.985 114.461 150.208 119.668 159.145 117.181ZM122.674 173.738C134.519 170.442 141.513 158.054 138.217 146.209C134.921 134.364 122.533 127.369 110.688 130.665C98.8428 133.961 91.8481 146.349 95.1441 158.195C98.4402 170.04 110.828 177.034 122.674 173.738Z" fill="#3E3E3E"/>
<path d="M336.216 156.358C341.933 157.698 346.355 160.467 349.482 164.666C352.698 168.775 354.306 173.555 354.306 179.004C354.306 187.312 351.537 193.744 345.998 198.3C340.549 202.767 332.687 205 322.414 205L272.7 205L272.7 110.128L321.074 110.128C330.722 110.128 338.315 112.227 343.854 116.426C349.393 120.625 352.162 126.744 352.162 134.784C352.162 140.323 350.688 145.013 347.74 148.854C344.881 152.606 341.04 155.107 336.216 156.358ZM302.448 147.112L313.972 147.112C316.652 147.112 318.617 146.576 319.868 145.504C321.208 144.432 321.878 142.779 321.878 140.546C321.878 138.223 321.208 136.526 319.868 135.454C318.617 134.293 316.652 133.712 313.972 133.712L302.448 133.712L302.448 147.112ZM315.982 181.148C318.662 181.148 320.627 180.657 321.878 179.674C323.218 178.602 323.888 176.905 323.888 174.582C323.888 170.026 321.253 167.748 315.982 167.748L302.448 167.748L302.448 181.148L315.982 181.148ZM412.006 205L394.184 170.964L394.05 170.964L394.05 205L364.302 205L364.302 110.128L408.522 110.128C416.204 110.128 422.77 111.513 428.22 114.282C433.669 116.962 437.734 120.669 440.414 125.404C443.183 130.049 444.568 135.32 444.568 141.216C444.568 147.559 442.781 153.187 439.208 158.1C435.724 163.013 430.676 166.542 424.066 168.686L444.702 205L412.006 205ZM394.05 151.132L405.842 151.132C408.7 151.132 410.844 150.507 412.274 149.256C413.703 147.916 414.418 145.861 414.418 143.092C414.418 140.591 413.658 138.625 412.14 137.196C410.71 135.767 408.611 135.052 405.842 135.052L394.05 135.052L394.05 151.132ZM514.907 190.662L483.283 190.662L478.593 205L447.371 205L482.077 110.128L516.381 110.128L550.953 205L519.597 205L514.907 190.662ZM507.671 168.284L499.095 141.886L490.519 168.284L507.671 168.284ZM653.254 110.128L621.362 205L582.904 205L551.012 110.128L582.636 110.128L602.2 175.386L621.63 110.128L653.254 110.128ZM706.143 205.938C697.21 205.938 688.991 203.839 681.487 199.64C674.072 195.441 668.176 189.635 663.799 182.22C659.422 174.805 657.233 166.453 657.233 157.162C657.233 147.871 659.422 139.519 663.799 132.104C668.176 124.689 674.072 118.927 681.487 114.818C688.991 110.619 697.21 108.52 706.143 108.52C715.076 108.52 723.25 110.619 730.665 114.818C738.08 118.927 743.931 124.689 748.219 132.104C752.596 139.519 754.785 147.871 754.785 157.162C754.785 166.453 752.596 174.805 748.219 182.22C743.931 189.635 738.035 195.441 730.531 199.64C723.116 203.839 714.987 205.938 706.143 205.938ZM706.143 178.2C712.039 178.2 716.595 176.324 719.811 172.572C723.027 168.731 724.635 163.594 724.635 157.162C724.635 150.641 723.027 145.504 719.811 141.752C716.595 137.911 712.039 135.99 706.143 135.99C700.158 135.99 695.557 137.911 692.341 141.752C689.125 145.504 687.517 150.641 687.517 157.162C687.517 163.594 689.125 168.731 692.341 172.572C695.557 176.324 700.158 178.2 706.143 178.2ZM865.872 142.69C865.872 148.675 864.487 154.125 861.718 159.038C858.949 163.862 854.839 167.703 849.39 170.562C844.03 173.421 837.509 174.85 829.826 174.85L818.034 174.85L818.034 205L788.286 205L788.286 110.128L829.826 110.128C841.439 110.128 850.328 113.076 856.492 118.972C862.745 124.868 865.872 132.774 865.872 142.69ZM826.476 151.4C832.64 151.4 835.722 148.497 835.722 142.69C835.722 136.883 832.64 133.98 826.476 133.98L818.034 133.98L818.034 151.4L826.476 151.4ZM905.055 110.128L905.055 205L875.307 205L875.307 110.128L905.055 110.128ZM951.455 181.282L989.511 181.282L989.511 205L918.491 205L918.491 182.622L956.011 133.712L918.491 133.712L918.491 110.128L989.511 110.128L989.511 132.506L951.455 181.282ZM1035.86 181.282L1073.92 181.282L1073.92 205L1002.9 205L1002.9 182.622L1040.42 133.712L1002.9 133.712L1002.9 110.128L1073.92 110.128L1073.92 132.506L1035.86 181.282ZM1148.14 190.662L1116.51 190.662L1111.82 205L1080.6 205L1115.31 110.128L1149.61 110.128L1184.18 205L1152.83 205L1148.14 190.662ZM1140.9 168.284L1132.32 141.886L1123.75 168.284L1140.9 168.284ZM1198.71 110.128L1228.19 110.128L1212.38 149.658L1192.82 149.658L1198.71 110.128ZM1275.22 205.938C1268.07 205.938 1261.73 204.777 1256.19 202.454C1250.74 200.131 1246.41 196.915 1243.19 192.806C1239.97 188.697 1238.14 184.051 1237.7 178.87L1266.24 178.87C1266.6 181.103 1267.53 182.756 1269.05 183.828C1270.66 184.9 1272.67 185.436 1275.08 185.436C1276.6 185.436 1277.81 185.123 1278.7 184.498C1279.59 183.783 1280.04 182.935 1280.04 181.952C1280.04 180.255 1279.1 179.049 1277.23 178.334C1275.35 177.619 1272.18 176.815 1267.71 175.922C1262.26 174.85 1257.75 173.689 1254.18 172.438C1250.69 171.187 1247.61 169.043 1244.93 166.006C1242.34 162.969 1241.05 158.77 1241.05 153.41C1241.05 148.765 1242.25 144.566 1244.66 140.814C1247.17 136.973 1250.83 133.98 1255.65 131.836C1260.48 129.603 1266.33 128.486 1273.21 128.486C1283.39 128.486 1291.34 130.987 1297.06 135.99C1302.87 140.993 1306.35 147.514 1307.51 155.554L1281.11 155.554C1280.67 153.499 1279.73 151.936 1278.3 150.864C1276.87 149.703 1274.95 149.122 1272.54 149.122C1271.02 149.122 1269.86 149.435 1269.05 150.06C1268.25 150.596 1267.85 151.445 1267.85 152.606C1267.85 154.125 1268.78 155.286 1270.66 156.09C1272.54 156.805 1275.53 157.564 1279.64 158.368C1285.09 159.44 1289.69 160.646 1293.44 161.986C1297.19 163.326 1300.45 165.649 1303.22 168.954C1305.99 172.17 1307.38 176.637 1307.38 182.354C1307.38 186.821 1306.08 190.841 1303.49 194.414C1300.9 197.987 1297.15 200.801 1292.23 202.856C1287.41 204.911 1281.74 205.938 1275.22 205.938Z" fill="#C03223"/>
</g>
<defs>
<clipPath id="clip0_39_15">
<rect width="1312" height="211" fill="white"/>
</clipPath>
</defs>
</svg>
