<svg width="2802" height="369" viewBox="0 0 2802 369" fill="none" xmlns="http://www.w3.org/2000/svg">
<path d="M1.16229e-06 362.5V12.5H137C161.667 12.5 182.167 16.3333 198.5 24C215.167 31.6666 227.667 42.3333 236 56C244.333 69.3333 248.5 84.8333 248.5 102.5C248.5 120.167 244.667 135 237 147C229.333 159 219.167 168.167 206.5 174.5C194.167 180.833 180.667 184.667 166 186L173.5 180.5C189.167 180.833 203.167 185 215.5 193C228.167 201 238.167 211.5 245.5 224.5C252.833 237.167 256.5 251.333 256.5 267C256.5 285.333 252 301.833 243 316.5C234.333 330.833 221.5 342.167 204.5 350.5C187.5 358.5 166.667 362.5 142 362.5H1.16229e-06ZM60 313.5H133C152.667 313.5 168 308.833 179 299.5C190 290.167 195.5 277.167 195.5 260.5C195.5 243.833 189.833 230.667 178.5 221C167.167 211 151.667 206 132 206H60V313.5ZM60 160.5H128.5C147.833 160.5 162.5 156.167 172.5 147.5C182.5 138.5 187.5 126.167 187.5 110.5C187.5 95.1667 182.5 83.1667 172.5 74.5C162.5 65.5 147.667 61 128 61H60V160.5ZM296.965 362.5V110.5H350.465L355.965 157.5C361.965 146.5 369.465 137.167 378.465 129.5C387.465 121.5 397.965 115.333 409.965 111C422.298 106.667 435.798 104.5 450.465 104.5V168H429.465C419.465 168 409.965 169.333 400.965 172C391.965 174.333 384.132 178.333 377.465 184C371.132 189.333 366.132 196.833 362.465 206.5C358.798 215.833 356.965 227.667 356.965 242V362.5H296.965ZM564.695 368.5C544.029 368.5 526.862 365 513.195 358C499.529 351 489.362 341.667 482.695 330C476.029 318.333 472.695 305.667 472.695 292C472.695 276 476.695 262.167 484.695 250.5C493.029 238.833 505.195 229.833 521.195 223.5C537.195 216.833 556.862 213.5 580.195 213.5H643.695C643.695 200.167 641.862 189.167 638.195 180.5C634.529 171.5 628.862 164.833 621.195 160.5C613.529 156.167 603.695 154 591.695 154C578.029 154 566.362 157.167 556.695 163.5C547.029 169.5 541.029 178.833 538.695 191.5H479.695C481.695 173.5 487.695 158.167 497.695 145.5C507.695 132.5 520.862 122.5 537.195 115.5C553.862 108.167 572.029 104.5 591.695 104.5C615.362 104.5 635.529 108.667 652.195 117C668.862 125 681.529 136.667 690.195 152C699.195 167 703.695 185.167 703.695 206.5V362.5H652.695L646.695 322C643.362 328.667 639.029 334.833 633.695 340.5C628.695 346.167 622.862 351.167 616.195 355.5C609.529 359.5 601.862 362.667 593.195 365C584.862 367.333 575.362 368.5 564.695 368.5ZM578.195 321C587.862 321 596.362 319.333 603.695 316C611.362 312.333 617.862 307.333 623.195 301C628.862 294.333 633.195 287 636.195 279C639.195 271 641.195 262.5 642.195 253.5V252.5H586.695C575.029 252.5 565.362 254 557.695 257C550.029 259.667 544.529 263.667 541.195 269C537.862 274.333 536.195 280.5 536.195 287.5C536.195 294.5 537.862 300.5 541.195 305.5C544.529 310.5 549.362 314.333 555.695 317C562.029 319.667 569.529 321 578.195 321ZM813.992 362.5L720.992 110.5H783.992L850.492 305.5L916.992 110.5H978.992L885.992 362.5H813.992ZM1112.14 368.5C1088.14 368.5 1066.47 363 1047.14 352C1028.14 340.667 1013.14 325.167 1002.14 305.5C991.474 285.5 986.141 262.667 986.141 237C986.141 210.667 991.641 187.667 1002.64 168C1013.64 148 1028.64 132.5 1047.64 121.5C1066.97 110.167 1088.64 104.5 1112.64 104.5C1136.64 104.5 1158.14 110.167 1177.14 121.5C1196.47 132.5 1211.47 147.833 1222.14 167.5C1233.14 187.167 1238.64 210.167 1238.64 236.5C1238.64 262.833 1233.14 285.833 1222.14 305.5C1211.14 325.167 1195.97 340.667 1176.64 352C1157.64 363 1136.14 368.5 1112.14 368.5ZM1112.14 317C1124.14 317 1134.97 314 1144.64 308C1154.64 302 1162.64 293 1168.64 281C1174.64 269 1177.64 254.167 1177.64 236.5C1177.64 218.833 1174.64 204.167 1168.64 192.5C1162.97 180.5 1155.14 171.5 1145.14 165.5C1135.47 159.5 1124.64 156.5 1112.64 156.5C1100.97 156.5 1090.14 159.5 1080.14 165.5C1070.14 171.5 1062.14 180.5 1056.14 192.5C1050.14 204.167 1047.14 218.833 1047.14 236.5C1047.14 254.167 1050.14 269 1056.14 281C1062.14 293 1069.97 302 1079.64 308C1089.64 314 1100.47 317 1112.14 317ZM1391.45 362.5V12.5H1517.45C1545.45 12.5 1568.61 17.3333 1586.95 27C1605.28 36.3333 1618.95 49 1627.95 65C1636.95 81 1641.45 99.3333 1641.45 120C1641.45 139.333 1637.11 157.167 1628.45 173.5C1619.78 189.5 1606.28 202.5 1587.95 212.5C1569.61 222.167 1546.11 227 1517.45 227H1451.45V362.5H1391.45ZM1451.45 178H1513.95C1537.61 178 1554.61 172.833 1564.95 162.5C1575.28 151.833 1580.45 137.667 1580.45 120C1580.45 101.667 1575.28 87.3333 1564.95 77C1554.61 66.6666 1537.61 61.5 1513.95 61.5H1451.45V178ZM1678.7 362.5V110.5H1738.7V362.5H1678.7ZM1708.7 70.5C1697.7 70.5 1688.54 67.1666 1681.2 60.5C1674.2 53.5 1670.7 45 1670.7 35C1670.7 24.6666 1674.2 16.3333 1681.2 9.99998C1688.54 3.33332 1697.7 -1.19209e-05 1708.7 -1.19209e-05C1719.7 -1.19209e-05 1728.7 3.33332 1735.7 9.99998C1743.04 16.3333 1746.7 24.6666 1746.7 35C1746.7 45 1743.04 53.5 1735.7 60.5C1728.7 67.1666 1719.7 70.5 1708.7 70.5ZM1776.54 362.5V314L1907.04 160.5H1778.54V110.5H1976.04V159L1844.04 313H1978.54V362.5H1776.54ZM2002.26 362.5V314L2132.76 160.5H2004.26V110.5H2201.76V159L2069.76 313H2204.26V362.5H2002.26ZM2328.48 368.5C2307.82 368.5 2290.65 365 2276.98 358C2263.32 351 2253.15 341.667 2246.48 330C2239.82 318.333 2236.48 305.667 2236.48 292C2236.48 276 2240.48 262.167 2248.48 250.5C2256.82 238.833 2268.98 229.833 2284.98 223.5C2300.98 216.833 2320.65 213.5 2343.98 213.5H2407.48C2407.48 200.167 2405.65 189.167 2401.98 180.5C2398.32 171.5 2392.65 164.833 2384.98 160.5C2377.32 156.167 2367.48 154 2355.48 154C2341.82 154 2330.15 157.167 2320.48 163.5C2310.82 169.5 2304.82 178.833 2302.48 191.5H2243.48C2245.48 173.5 2251.48 158.167 2261.48 145.5C2271.48 132.5 2284.65 122.5 2300.98 115.5C2317.65 108.167 2335.82 104.5 2355.48 104.5C2379.15 104.5 2399.32 108.667 2415.98 117C2432.65 125 2445.32 136.667 2453.98 152C2462.98 167 2467.48 185.167 2467.48 206.5V362.5H2416.48L2410.48 322C2407.15 328.667 2402.82 334.833 2397.48 340.5C2392.48 346.167 2386.65 351.167 2379.98 355.5C2373.32 359.5 2365.65 362.667 2356.98 365C2348.65 367.333 2339.15 368.5 2328.48 368.5ZM2341.98 321C2351.65 321 2360.15 319.333 2367.48 316C2375.15 312.333 2381.65 307.333 2386.98 301C2392.65 294.333 2396.98 287 2399.98 279C2402.98 271 2404.98 262.5 2405.98 253.5V252.5H2350.48C2338.82 252.5 2329.15 254 2321.48 257C2313.82 259.667 2308.32 263.667 2304.98 269C2301.65 274.333 2299.98 280.5 2299.98 287.5C2299.98 294.5 2301.65 300.5 2304.98 305.5C2308.32 310.5 2313.15 314.333 2319.48 317C2325.82 319.667 2333.32 321 2341.98 321ZM2589.09 12.5L2539.59 137H2498.09L2525.09 12.5H2589.09ZM2698.29 368.5C2675.95 368.5 2656.45 365 2639.79 358C2623.45 350.667 2610.45 340.667 2600.79 328C2591.45 315 2585.95 300.167 2584.29 283.5H2644.29C2645.95 290.5 2648.95 297 2653.29 303C2657.62 308.667 2663.45 313.167 2670.79 316.5C2678.45 319.833 2687.45 321.5 2697.79 321.5C2707.79 321.5 2715.95 320.167 2722.29 317.5C2728.62 314.5 2733.29 310.667 2736.29 306C2739.29 301.333 2740.79 296.333 2740.79 291C2740.79 283 2738.62 276.833 2734.29 272.5C2729.95 268.167 2723.62 264.833 2715.29 262.5C2707.29 259.833 2697.62 257.333 2686.29 255C2674.29 252.667 2662.62 249.833 2651.29 246.5C2640.29 242.833 2630.29 238.333 2621.29 233C2612.62 227.667 2605.62 220.833 2600.29 212.5C2595.29 204.167 2592.79 194 2592.79 182C2592.79 167.333 2596.62 154.167 2604.29 142.5C2612.29 130.833 2623.62 121.667 2638.29 115C2653.29 108 2671.12 104.5 2691.79 104.5C2721.12 104.5 2744.45 111.333 2761.79 125C2779.45 138.333 2789.79 157.167 2792.79 181.5H2735.79C2734.12 172.167 2729.45 165 2721.79 160C2714.12 154.667 2703.95 152 2691.29 152C2678.29 152 2668.29 154.5 2661.29 159.5C2654.62 164.167 2651.29 170.5 2651.29 178.5C2651.29 183.5 2653.29 188.167 2657.29 192.5C2661.62 196.5 2667.79 200 2675.79 203C2683.79 205.667 2693.62 208.333 2705.29 211C2723.95 214.667 2740.45 219 2754.79 224C2769.12 229 2780.45 236.333 2788.79 246C2797.12 255.667 2801.29 269.333 2801.29 287C2801.62 303 2797.45 317.167 2788.79 329.5C2780.45 341.833 2768.62 351.5 2753.29 358.5C2737.95 365.167 2719.62 368.5 2698.29 368.5Z" fill="url(#paint0_linear_191_2)" fill-opacity="0.65"/>
<defs>
<linearGradient id="paint0_linear_191_2" x1="2755.76" y1="-225.32" x2="-138.557" y2="570.207" gradientUnits="userSpaceOnUse">
<stop offset="0.5625" stop-color="white"/>
<stop offset="0.807692" stop-color="white"/>
<stop offset="1" stop-color="white" stop-opacity="0"/>
</linearGradient>
</defs>
</svg>
