<svg width="487" height="79" viewBox="0 0 487 79" fill="none" xmlns="http://www.w3.org/2000/svg">
<g clip-path="url(#clip0_81_13)">
<path d="M47.3939 1.52798C49.1926 1.02748 51.0851 1.79283 52.043 3.37811L55.0746 8.39148C28.1513 19.1992 12.1981 47.4536 16.8503 76.0897L10.9917 76.0834C9.13946 76.082 7.50657 74.8569 7.00607 73.0582C-1.58032 42.2008 16.5365 10.1144 47.3939 1.52798Z" fill="#3E3E3E"/>
<path d="M59.4627 15.653L92.0982 69.7922C92.8872 71.0799 92.899 72.67 92.1379 73.9585C91.7685 74.5959 91.2376 75.1246 90.5987 75.4914C89.9598 75.8582 89.2355 76.0501 88.4988 76.0477L25.2839 76.0672C20.4575 50.3649 34.9106 24.7674 59.4116 15.6242L59.4627 15.653ZM69.7414 66.3665C73.059 65.4433 74.9918 62.0201 74.0687 58.7025C73.1455 55.385 69.7223 53.4521 66.4047 54.3753C63.0871 55.2984 61.1543 58.7216 62.0774 62.0392C63.0006 65.3568 66.4238 67.2896 69.7414 66.3665ZM59.071 43.4963C62.3885 42.5731 64.3214 39.1499 63.3982 35.8323C62.4751 32.5147 59.0518 30.5819 55.7343 31.505C52.4167 32.4282 50.4839 35.8514 51.407 39.169C52.3302 42.4866 55.7534 44.4194 59.071 43.4963ZM45.533 64.4896C49.9298 63.2661 52.5262 58.6678 51.3027 54.271C50.0793 49.8742 45.4809 47.2778 41.0841 48.5013C36.6873 49.7247 34.091 54.3231 35.3144 58.7199C36.5379 63.1167 41.1363 65.713 45.533 64.4896Z" fill="#3E3E3E"/>
<path d="M124.8 58.4739C126.922 58.9713 128.563 59.9993 129.724 61.5578C130.918 63.0831 131.515 64.8571 131.515 66.8799C131.515 69.9637 130.487 72.3512 128.431 74.0423C126.408 75.7003 123.49 76.5293 119.677 76.5293L101.223 76.5293L101.223 41.3139L119.179 41.3139C122.76 41.3139 125.579 42.0931 127.635 43.6516C129.691 45.2101 130.719 47.4815 130.719 50.4659C130.719 52.5218 130.172 54.2627 129.077 55.6885C128.016 57.0812 126.59 58.0097 124.8 58.4739ZM112.265 55.0419L116.543 55.0419C117.538 55.0419 118.267 54.8429 118.732 54.445C119.229 54.0471 119.478 53.4337 119.478 52.6047C119.478 51.7425 119.229 51.1125 118.732 50.7146C118.267 50.2835 117.538 50.068 116.543 50.068L112.265 50.068L112.265 55.0419ZM117.289 67.6757C118.284 67.6757 119.013 67.4933 119.478 67.1286C119.975 66.7306 120.224 66.1006 120.224 65.2385C120.224 63.5473 119.246 62.7018 117.289 62.7018L112.265 62.7018L112.265 67.6757L117.289 67.6757ZM152.932 76.5293L146.317 63.8955L146.267 63.8955L146.267 76.5293L135.225 76.5293L135.225 41.3139L151.639 41.3139C154.49 41.3139 156.928 41.8278 158.95 42.8558C160.973 43.8506 162.482 45.2267 163.477 46.9841C164.505 48.7084 165.019 50.6648 165.019 52.8534C165.019 55.2077 164.355 57.2968 163.029 59.1205C161.736 60.9443 159.862 62.2541 157.409 63.0499L165.068 76.5293L152.932 76.5293ZM146.267 56.5341L150.644 56.5341C151.705 56.5341 152.501 56.302 153.031 55.8377C153.562 55.3403 153.827 54.5777 153.827 53.5497C153.827 52.6213 153.545 51.8917 152.982 51.3612C152.451 50.8306 151.672 50.5654 150.644 50.5654L146.267 50.5654L146.267 56.5341ZM191.128 71.2072L179.389 71.2072L177.649 76.5293L166.059 76.5293L178.942 41.3138L191.675 41.3138L204.508 76.5293L192.869 76.5293L191.128 71.2072ZM188.442 62.9007L185.259 53.1021L182.075 62.9007L188.442 62.9007ZM242.481 41.3138L230.643 76.5293L216.368 76.5293L204.53 41.3138L216.268 41.3138L223.53 65.5369L230.742 41.3138L242.481 41.3138ZM262.113 76.8775C258.797 76.8775 255.746 76.0982 252.961 74.5397C250.208 72.9812 248.02 70.8259 246.395 68.0736C244.77 65.3214 243.958 62.2209 243.958 58.7724C243.958 55.3238 244.77 52.2233 246.395 49.4711C248.02 46.7189 250.208 44.5801 252.961 43.0547C255.746 41.4962 258.797 40.717 262.113 40.717C265.429 40.717 268.463 41.4962 271.215 43.0547C273.967 44.5801 276.139 46.7189 277.731 49.4711C279.356 52.2233 280.168 55.3238 280.168 58.7724C280.168 62.2209 279.356 65.3214 277.731 68.0736C276.139 70.8259 273.951 72.9812 271.165 74.5397C268.413 76.0982 265.395 76.8775 262.113 76.8775ZM262.113 66.5814C264.301 66.5814 265.992 65.8851 267.186 64.4924C268.38 63.0665 268.977 61.1598 268.977 58.7724C268.977 56.3517 268.38 54.445 267.186 53.0523C265.992 51.6265 264.301 50.9135 262.113 50.9135C259.891 50.9135 258.183 51.6265 256.989 53.0523C255.796 54.445 255.199 56.3517 255.199 58.7724C255.199 61.1598 255.796 63.0665 256.989 64.4924C258.183 65.8851 259.891 66.5814 262.113 66.5814ZM321.402 53.4005C321.402 55.6222 320.888 57.6449 319.86 59.4687C318.832 61.2593 317.307 62.6852 315.284 63.7463C313.295 64.8074 310.874 65.3379 308.022 65.3379L303.645 65.3379L303.645 76.5293L292.603 76.5293L292.603 41.3138L308.022 41.3138C312.333 41.3138 315.632 42.4081 317.92 44.5966C320.242 46.7852 321.402 49.7198 321.402 53.4005ZM306.779 56.6336C309.067 56.6336 310.211 55.5559 310.211 53.4005C310.211 51.2451 309.067 50.1674 306.779 50.1674L303.645 50.1674L303.645 56.6336L306.779 56.6336ZM335.947 41.3138L335.947 76.5293L324.905 76.5293L324.905 41.3138L335.947 41.3138ZM353.17 67.7254L367.296 67.7254L367.296 76.5293L340.934 76.5293L340.934 68.2228L354.861 50.068L340.934 50.068L340.934 41.3138L367.296 41.3138L367.296 49.6203L353.17 67.7254ZM384.5 67.7254L398.626 67.7254L398.626 76.5293L372.264 76.5293L372.264 68.2228L386.191 50.068L372.264 50.068L372.264 41.3138L398.626 41.3138L398.626 49.6203L384.5 67.7254ZM426.175 71.2072L414.437 71.2072L412.696 76.5293L401.107 76.5293L413.989 41.3138L426.723 41.3138L439.555 76.5293L427.916 76.5293L426.175 71.2072ZM423.489 62.9007L420.306 53.1021L417.123 62.9007L423.489 62.9007ZM444.949 41.3138L455.892 41.3138L450.022 55.9869L442.76 55.9869L444.949 41.3138ZM473.347 76.8775C470.694 76.8775 468.339 76.4464 466.284 75.5842C464.261 74.7221 462.653 73.5284 461.459 72.003C460.265 70.4777 459.585 68.7534 459.42 66.8301L470.014 66.8301C470.147 67.6591 470.495 68.2726 471.059 68.6705C471.655 69.0684 472.401 69.2673 473.297 69.2673C473.861 69.2673 474.308 69.1513 474.64 68.9192C474.971 68.6539 475.137 68.3389 475.137 67.9741C475.137 67.3441 474.789 66.8964 474.093 66.6312C473.396 66.3659 472.219 66.0675 470.561 65.7359C468.538 65.3379 466.864 64.9069 465.537 64.4426C464.244 63.9784 463.1 63.1826 462.105 62.0551C461.144 60.9277 460.663 59.3692 460.663 57.3796C460.663 55.6554 461.111 54.0969 462.006 52.7042C462.934 51.2783 464.294 50.1674 466.085 49.3716C467.875 48.5426 470.047 48.1281 472.6 48.1281C476.381 48.1281 479.332 49.0566 481.454 50.9135C483.609 52.7705 484.903 55.1911 485.334 58.1755L475.535 58.1755C475.369 57.4128 475.021 56.8325 474.491 56.4346C473.96 56.0035 473.247 55.788 472.352 55.788C471.788 55.788 471.357 55.904 471.059 56.1362C470.76 56.3351 470.611 56.6501 470.611 57.0812C470.611 57.6449 470.959 58.076 471.655 58.3744C472.352 58.6397 473.463 58.9216 474.988 59.22C477.011 59.6179 478.718 60.0656 480.111 60.563C481.504 61.0604 482.714 61.9225 483.742 63.1494C484.77 64.3432 485.284 66.0011 485.284 68.1233C485.284 69.7813 484.803 71.2735 483.842 72.5999C482.88 73.9263 481.487 74.9708 479.663 75.7335C477.873 76.4961 475.767 76.8775 473.347 76.8775Z" fill="#C03223"/>
</g>
<defs>
<clipPath id="clip0_81_13">
<rect width="487" height="78.3209" fill="white"/>
</clipPath>
</defs>
</svg>
