<svg width="6176" height="1172" viewBox="0 0 6176 1172" fill="none" xmlns="http://www.w3.org/2000/svg">
<g clip-path="url(#clip0_210_20)">
<circle cx="586" cy="586" r="586" fill="#E9220D"/>
<path d="M544.777 214.689C554.51 208.945 566.774 210.454 574.858 218.222L600.436 242.785C459.956 348.152 410.946 538.339 483.008 698.477L448.745 707.619C437.913 710.512 426.447 705.907 420.703 696.175C322.159 529.213 377.816 313.232 544.777 214.689Z" fill="url(#paint0_linear_210_20)"/>
<path d="M637.474 278.369L913.098 543.776C919.729 550.069 922.289 559.347 919.857 568.073C918.696 572.378 916.42 576.301 913.26 579.447C910.099 582.592 906.165 584.849 901.854 585.989L532.287 685.136C463.803 542.424 508.204 370.121 637.13 278.28L637.474 278.369ZM777.018 558.771C794.969 548.177 800.907 525.134 790.312 507.183C779.718 489.233 756.675 483.295 738.724 493.89C720.774 504.484 714.836 527.527 725.431 545.478C736.025 563.428 759.068 569.366 777.018 558.771ZM678.803 441.773C696.754 431.178 702.692 408.136 692.097 390.185C681.502 372.235 658.46 366.297 640.509 376.891C622.559 387.486 616.621 410.529 627.215 428.479C637.81 446.43 660.853 452.368 678.803 441.773ZM632.54 585.723C656.33 571.682 664.306 540.729 650.265 516.939C636.223 493.149 605.271 485.173 581.481 499.214C557.691 513.255 549.715 544.208 563.756 567.998C577.797 591.788 608.75 599.764 632.54 585.723Z" fill="url(#paint1_linear_210_20)"/>
<g clip-path="url(#clip1_210_20)">
<path d="M368.911 901.174C370.178 905.901 373.269 909.932 377.504 912.379C381.739 914.827 386.772 915.491 391.495 914.226L854.498 790.164C859.221 788.899 863.247 785.807 865.691 781.57C868.135 777.333 868.797 772.296 867.53 767.569L809.625 551.462L311.006 685.067L368.911 901.174ZM401.178 727.766C400.545 725.402 400.875 722.884 402.097 720.765C403.319 718.647 405.332 717.101 407.694 716.468L510.089 689.031C512.45 688.399 514.967 688.731 517.084 689.955C519.202 691.178 520.747 693.194 521.381 695.557L540.483 766.85C541.117 769.214 540.786 771.732 539.564 773.851C538.342 775.969 536.329 777.515 533.967 778.148L431.572 805.584C429.211 806.217 426.695 805.885 424.577 804.661C422.459 803.437 420.914 801.422 420.281 799.059L401.178 727.766ZM762.034 447.32L299.03 571.382C294.308 572.647 290.281 575.739 287.837 579.976C285.393 584.213 284.732 589.25 285.998 593.977L305.698 667.498L555.008 600.695L804.317 533.893L784.617 460.372C783.351 455.645 780.26 451.614 776.024 449.167C771.789 446.719 766.757 446.055 762.034 447.32Z" fill="white"/>
</g>
<path d="M1775.25 581.3C1800.82 586.067 1821.83 598.85 1838.3 619.65C1854.77 640.45 1863 664.283 1863 691.15C1863 715.417 1856.93 736.867 1844.8 755.5C1833.1 773.7 1815.98 788 1793.45 798.4C1770.92 808.8 1744.27 814 1713.5 814H1517.85V360.3H1705.05C1735.82 360.3 1762.25 365.283 1784.35 375.25C1806.88 385.217 1823.78 399.083 1835.05 416.85C1846.75 434.617 1852.6 454.767 1852.6 477.3C1852.6 503.733 1845.45 525.833 1831.15 543.6C1817.28 561.367 1798.65 573.933 1775.25 581.3ZM1608.85 547.5H1692.05C1713.72 547.5 1730.4 542.733 1742.1 533.2C1753.8 523.233 1759.65 509.15 1759.65 490.95C1759.65 472.75 1753.8 458.667 1742.1 448.7C1730.4 438.733 1713.72 433.75 1692.05 433.75H1608.85V547.5ZM1700.5 739.9C1722.6 739.9 1739.72 734.7 1751.85 724.3C1764.42 713.9 1770.7 699.167 1770.7 680.1C1770.7 660.6 1764.2 645.433 1751.2 634.6C1738.2 623.333 1720.65 617.7 1698.55 617.7H1608.85V739.9H1700.5ZM2026.53 509.8C2038.23 490.733 2053.39 475.783 2072.03 464.95C2091.09 454.117 2112.76 448.7 2137.03 448.7V544.25H2112.98C2084.38 544.25 2062.71 550.967 2047.98 564.4C2033.68 577.833 2026.53 601.233 2026.53 634.6V814H1935.53V453.9H2026.53V509.8ZM2174.92 632.65C2174.92 596.25 2182.07 563.967 2196.37 535.8C2211.1 507.633 2230.82 485.967 2255.52 470.8C2280.65 455.633 2308.6 448.05 2339.37 448.05C2366.24 448.05 2389.64 453.467 2409.57 464.3C2429.94 475.133 2446.19 488.783 2458.32 505.25V453.9H2549.97V814H2458.32V761.35C2446.62 778.25 2430.37 792.333 2409.57 803.6C2389.2 814.433 2365.59 819.85 2338.72 819.85C2308.39 819.85 2280.65 812.05 2255.52 796.45C2230.82 780.85 2211.1 758.967 2196.37 730.8C2182.07 702.2 2174.92 669.483 2174.92 632.65ZM2458.32 633.95C2458.32 611.85 2453.99 593 2445.32 577.4C2436.65 561.367 2424.95 549.233 2410.22 541C2395.49 532.333 2379.67 528 2362.77 528C2345.87 528 2330.27 532.117 2315.97 540.35C2301.67 548.583 2289.97 560.717 2280.87 576.75C2272.2 592.35 2267.87 610.983 2267.87 632.65C2267.87 654.317 2272.2 673.383 2280.87 689.85C2289.97 705.883 2301.67 718.233 2315.97 726.9C2330.7 735.567 2346.3 739.9 2362.77 739.9C2379.67 739.9 2395.49 735.783 2410.22 727.55C2424.95 718.883 2436.65 706.75 2445.32 691.15C2453.99 675.117 2458.32 656.05 2458.32 633.95ZM2789 730.15L2880 453.9H2976.85L2843.6 814H2733.1L2600.5 453.9H2698L2789 730.15ZM3187.86 819.85C3153.19 819.85 3121.99 812.267 3094.26 797.1C3066.52 781.5 3044.64 759.617 3028.61 731.45C3013.01 703.283 3005.21 670.783 3005.21 633.95C3005.21 597.117 3013.22 564.617 3029.26 536.45C3045.72 508.283 3068.04 486.617 3096.21 471.45C3124.37 455.85 3155.79 448.05 3190.46 448.05C3225.12 448.05 3256.54 455.85 3284.71 471.45C3312.87 486.617 3334.97 508.283 3351.01 536.45C3367.47 564.617 3375.71 597.117 3375.71 633.95C3375.71 670.783 3367.26 703.283 3350.36 731.45C3333.89 759.617 3311.36 781.5 3282.76 797.1C3254.59 812.267 3222.96 819.85 3187.86 819.85ZM3187.86 740.55C3204.32 740.55 3219.71 736.65 3234.01 728.85C3248.74 720.617 3260.44 708.483 3269.11 692.45C3277.77 676.417 3282.11 656.917 3282.11 633.95C3282.11 599.717 3273.01 573.5 3254.81 555.3C3237.04 536.667 3215.16 527.35 3189.16 527.35C3163.16 527.35 3141.27 536.667 3123.51 555.3C3106.17 573.5 3097.51 599.717 3097.51 633.95C3097.51 668.183 3105.96 694.617 3122.86 713.25C3140.19 731.45 3161.86 740.55 3187.86 740.55ZM3773.31 500.7C3773.31 524.967 3767.46 547.717 3755.76 568.95C3744.49 590.183 3726.51 607.3 3701.81 620.3C3677.54 633.3 3646.78 639.8 3609.51 639.8H3533.46V814H3442.46V360.3H3609.51C3644.61 360.3 3674.51 366.367 3699.21 378.5C3723.91 390.633 3742.33 407.317 3754.46 428.55C3767.03 449.783 3773.31 473.833 3773.31 500.7ZM3605.61 566.35C3630.74 566.35 3649.38 560.717 3661.51 549.45C3673.64 537.75 3679.71 521.5 3679.71 500.7C3679.71 456.5 3655.01 434.4 3605.61 434.4H3533.46V566.35H3605.61ZM3884.07 411C3868.04 411 3854.6 406.017 3843.77 396.05C3833.37 385.65 3828.17 372.867 3828.17 357.7C3828.17 342.533 3833.37 329.967 3843.77 320C3854.6 309.6 3868.04 304.4 3884.07 304.4C3900.1 304.4 3913.32 309.6 3923.72 320C3934.55 329.967 3939.97 342.533 3939.97 357.7C3939.97 372.867 3934.55 385.65 3923.72 396.05C3913.32 406.017 3900.1 411 3884.07 411ZM3928.92 453.9V814H3837.92V453.9H3928.92ZM4102.03 739.25H4262.58V814H3998.68V740.55L4155.98 528.65H3999.33V453.9H4260.63V527.35L4102.03 739.25ZM4416.24 739.25H4576.79V814H4312.89V740.55L4470.19 528.65H4313.54V453.9H4574.84V527.35L4416.24 739.25ZM4623.84 632.65C4623.84 596.25 4630.99 563.967 4645.29 535.8C4660.03 507.633 4679.74 485.967 4704.44 470.8C4729.58 455.633 4757.53 448.05 4788.29 448.05C4815.16 448.05 4838.56 453.467 4858.49 464.3C4878.86 475.133 4895.11 488.783 4907.24 505.25V453.9H4998.89V814H4907.24V761.35C4895.54 778.25 4879.29 792.333 4858.49 803.6C4838.13 814.433 4814.51 819.85 4787.64 819.85C4757.31 819.85 4729.58 812.05 4704.44 796.45C4679.74 780.85 4660.03 758.967 4645.29 730.8C4630.99 702.2 4623.84 669.483 4623.84 632.65ZM4907.24 633.95C4907.24 611.85 4902.91 593 4894.24 577.4C4885.58 561.367 4873.88 549.233 4859.14 541C4844.41 532.333 4828.59 528 4811.69 528C4794.79 528 4779.19 532.117 4764.89 540.35C4750.59 548.583 4738.89 560.717 4729.79 576.75C4721.13 592.35 4716.79 610.983 4716.79 632.65C4716.79 654.317 4721.13 673.383 4729.79 689.85C4738.89 705.883 4750.59 718.233 4764.89 726.9C4779.63 735.567 4795.23 739.9 4811.69 739.9C4828.59 739.9 4844.41 735.783 4859.14 727.55C4873.88 718.883 4885.58 706.75 4894.24 691.15C4902.91 675.117 4907.24 656.05 4907.24 633.95ZM5372.47 486.4C5372.47 526.7 5359.91 558.117 5334.77 580.65C5309.64 602.75 5272.37 613.8 5222.97 613.8H5125.47V814H5096.22V357.7H5222.97C5273.24 357.7 5310.72 369.4 5335.42 392.8C5360.12 415.767 5372.47 446.967 5372.47 486.4ZM5222.97 587.8C5303.14 587.8 5343.22 554 5343.22 486.4C5343.22 453.033 5333.69 427.683 5314.62 410.35C5295.56 392.583 5265.01 383.7 5222.97 383.7H5125.47V587.8H5222.97ZM5432.86 637.2C5432.86 600.8 5440.01 568.95 5454.31 541.65C5469.04 514.35 5489.19 493.333 5514.76 478.6C5540.76 463.867 5570.22 456.5 5603.16 456.5C5640.42 456.5 5672.06 465.6 5698.06 483.8C5724.06 502 5742.26 525.183 5752.66 553.35V461.05H5781.91V814H5752.66V721.05C5742.26 749.65 5723.84 773.267 5697.41 791.9C5671.41 810.1 5639.99 819.2 5603.16 819.2C5570.22 819.2 5540.76 811.833 5514.76 797.1C5489.19 781.933 5469.04 760.7 5454.31 733.4C5440.01 705.667 5432.86 673.6 5432.86 637.2ZM5752.66 637.2C5752.66 606.433 5746.16 579.35 5733.16 555.95C5720.59 532.117 5703.26 513.917 5681.16 501.35C5659.06 488.35 5634.36 481.85 5607.06 481.85C5578.46 481.85 5553.32 488.133 5531.66 500.7C5509.99 512.833 5493.09 530.6 5480.96 554C5468.82 577.4 5462.76 605.133 5462.76 637.2C5462.76 669.267 5468.82 697 5480.96 720.4C5493.09 743.8 5509.99 761.783 5531.66 774.35C5553.76 786.917 5578.89 793.2 5607.06 793.2C5634.36 793.2 5659.06 786.917 5681.16 774.35C5703.69 761.35 5721.24 743.15 5733.81 719.75C5746.37 695.917 5752.66 668.4 5752.66 637.2ZM6164.01 461.05L5958.61 979.75H5928.71L5994.36 814L5846.16 461.05H5878.01L6010.61 781.5L6134.11 461.05H6164.01Z" fill="#3B0600"/>
</g>
<defs>
<linearGradient id="paint0_linear_210_20" x1="584.415" y1="342.13" x2="377.332" y2="636.527" gradientUnits="userSpaceOnUse">
<stop stop-color="white"/>
<stop offset="1" stop-color="#E9220D"/>
</linearGradient>
<linearGradient id="paint1_linear_210_20" x1="737.452" y1="375.881" x2="522.122" y2="682.16" gradientUnits="userSpaceOnUse">
<stop stop-color="white"/>
<stop offset="1" stop-color="#E9220D"/>
</linearGradient>
<clipPath id="clip0_210_20">
<rect width="6176" height="1172" fill="white"/>
</clipPath>
<clipPath id="clip1_210_20">
<rect width="517.429" height="405.854" fill="white" transform="translate(268 526.918) rotate(-15)"/>
</clipPath>
</defs>
</svg>
